<svg xmlns="http://www.w3.org/2000/svg" viewBox="0 0 600 290" role="img"><title>Peso junto ao corpo → Quadril para trás</title><rect width="600" height="290" rx="22" fill="#252c22"/><path d="M300 30v225" stroke="#46523e" stroke-dasharray="4 7"/><g transform="translate(20 20)"><circle cx="110" cy="45" r="12" fill="#f4f7ed"/><polyline points="110,62 110,125" fill="none" stroke="#d9ff57" stroke-width="9" stroke-linecap="round" stroke-linejoin="round"/><polyline points="110,75 95,115 95,140" fill="none" stroke="#d9ff57" stroke-width="9" stroke-linecap="round" stroke-linejoin="round"/><polyline points="110,75 130,115 130,140" fill="none" stroke="#aeb9a7" stroke-width="9" stroke-linecap="round" stroke-linejoin="round"/><polyline points="110,125 90,166 90,205" fill="none" stroke="#d9ff57" stroke-width="9" stroke-linecap="round" stroke-linejoin="round"/><polyline points="110,125 132,166 132,205" fill="none" stroke="#aeb9a7" stroke-width="9" stroke-linecap="round" stroke-linejoin="round"/><g stroke="#ff8a45" stroke-width="7" stroke-linecap="round"><path d="M82,142h26 M81,134v16 M109,134v16"/></g><g stroke="#ff8a45" stroke-width="7" stroke-linecap="round"><path d="M117,142h26 M116,134v16 M144,134v16"/></g></g><g transform="translate(320 20)"><circle cx="176" cy="94" r="12" fill="#f4f7ed"/><polyline points="158,97 99,128" fill="none" stroke="#d9ff57" stroke-width="9" stroke-linecap="round" stroke-linejoin="round"/><polyline points="149,104 149,140 149,174" fill="none" stroke="#d9ff57" stroke-width="9" stroke-linecap="round" stroke-linejoin="round"/><polyline points="135,109 130,145 130,176" fill="none" stroke="#aeb9a7" stroke-width="9" stroke-linecap="round" stroke-linejoin="round"/><polyline points="99,128 116,162 104,205" fill="none" stroke="#d9ff57" stroke-width="9" stroke-linecap="round" stroke-linejoin="round"/><polyline points="99,128 133,165 133,205" fill="none" stroke="#aeb9a7" stroke-width="9" stroke-linecap="round" stroke-linejoin="round"/><g stroke="#ff8a45" stroke-width="7" stroke-linecap="round"><path d="M136,178h26 M135,170v16 M163,170v16"/></g><g stroke="#ff8a45" stroke-width="7" stroke-linecap="round"><path d="M117,178h26 M116,170v16 M144,170v16"/></g></g><path d="M35 230H265 M335 230H565" stroke="#64715b" stroke-width="2"/><text x="150" y="266" text-anchor="middle" fill="#f4f7ed" font-family="sans-serif" font-size="15">Peso junto ao corpo</text><text x="450" y="266" text-anchor="middle" fill="#f4f7ed" font-family="sans-serif" font-size="15">Quadril para trás</text></svg>