<svg xmlns="http://www.w3.org/2000/svg" viewBox="0 0 600 290" role="img"><title>Junto ao ombro → Elevar sem arquear</title><rect width="600" height="290" rx="22" fill="#252c22"/><path d="M300 30v225" stroke="#46523e" stroke-dasharray="4 7"/><g transform="translate(20 20)"><circle cx="115" cy="55" r="12" fill="#f4f7ed"/><polyline points="115,72 115,132" fill="none" stroke="#d9ff57" stroke-width="9" stroke-linecap="round" stroke-linejoin="round"/><polyline points="115,81 155,99 155,62" fill="none" stroke="#d9ff57" stroke-width="9" stroke-linecap="round" stroke-linejoin="round"/><polyline points="115,81 88,113 87,143" fill="none" stroke="#aeb9a7" stroke-width="9" stroke-linecap="round" stroke-linejoin="round"/><polyline points="115,132 95,168 90,205" fill="none" stroke="#d9ff57" stroke-width="9" stroke-linecap="round" stroke-linejoin="round"/><polyline points="115,132 135,168 144,205" fill="none" stroke="#aeb9a7" stroke-width="9" stroke-linecap="round" stroke-linejoin="round"/><g stroke="#ff8a45" stroke-width="7" stroke-linecap="round"><path d="M142,59h26 M141,51v16 M169,51v16"/></g></g><g transform="translate(320 20)"><circle cx="115" cy="55" r="12" fill="#f4f7ed"/><polyline points="115,72 115,132" fill="none" stroke="#d9ff57" stroke-width="9" stroke-linecap="round" stroke-linejoin="round"/><polyline points="115,81 137,48 137,21" fill="none" stroke="#d9ff57" stroke-width="9" stroke-linecap="round" stroke-linejoin="round"/><polyline points="115,81 88,113 87,143" fill="none" stroke="#aeb9a7" stroke-width="9" stroke-linecap="round" stroke-linejoin="round"/><polyline points="115,132 95,168 90,205" fill="none" stroke="#d9ff57" stroke-width="9" stroke-linecap="round" stroke-linejoin="round"/><polyline points="115,132 135,168 144,205" fill="none" stroke="#aeb9a7" stroke-width="9" stroke-linecap="round" stroke-linejoin="round"/><g stroke="#ff8a45" stroke-width="7" stroke-linecap="round"><path d="M124,19h26 M123,11v16 M151,11v16"/></g></g><path d="M35 230H265 M335 230H565" stroke="#64715b" stroke-width="2"/><text x="150" y="266" text-anchor="middle" fill="#f4f7ed" font-family="sans-serif" font-size="15">Junto ao ombro</text><text x="450" y="266" text-anchor="middle" fill="#f4f7ed" font-family="sans-serif" font-size="15">Elevar sem arquear</text></svg>